<svg xmlns="http://www.w3.org/2000/svg" width="140" height="119" viewBox="0 0 140 119">
  <g id="Groupe_10526" data-name="Groupe 10526" transform="translate(-724 -1560)">
    <rect id="Rectangle_1414" data-name="Rectangle 1414" width="140" height="119" rx="7" transform="translate(724 1560)" fill="rgba(55,237,129,0.08)"/>
    <g id="android" transform="translate(755 1589.01)">
      <path id="Tracé_436" data-name="Tracé 436" d="M62.143,72a3.868,3.868,0,0,0-3.857,3.857V91.286a3.857,3.857,0,0,0,7.714,0V75.857A3.868,3.868,0,0,0,62.143,72ZM15.857,72A3.868,3.868,0,0,0,12,75.857V91.286a3.857,3.857,0,0,0,7.714,0V75.857A3.868,3.868,0,0,0,15.857,72Zm5.786,21.214A5.786,5.786,0,0,0,27.429,99v7.714a3.857,3.857,0,0,0,7.714,0V99h7.714v7.714a3.857,3.857,0,0,0,7.714,0V99a5.786,5.786,0,0,0,5.786-5.786V72H21.643Z" transform="translate(0 -48.864)" fill="#37ed81"/>
      <path id="Tracé_437" data-name="Tracé 437" d="M76.834,19.279A17.357,17.357,0,0,0,69.024,6.643l1.929-3.861A1.929,1.929,0,0,0,67.5,1.058L65.564,4.93l-.5-.2a17.373,17.373,0,0,0-10.954,0l-.5.2L51.67,1.058a1.929,1.929,0,1,0-3.452,1.724l1.929,3.861a17.353,17.353,0,0,0-7.811,12.636v1.929H76.942V19.279ZM53.8,15.422a1.929,1.929,0,0,1,0-3.857H53.8a1.929,1.929,0,1,1,0,3.857Zm11.571,0a1.929,1.929,0,1,1,0-3.857h.012a1.929,1.929,0,1,1,0,3.857Z" transform="translate(-20.585 0)" fill="#37ed81"/>
    </g>
  </g>
</svg>
