<svg id="email-solid" xmlns="http://www.w3.org/2000/svg" width="15.949" height="11.967" viewBox="0 0 15.949 11.967">
  <path id="Tracé_423" data-name="Tracé 423" d="M32.492,31.929a1,1,0,0,0-.2,0H18.333a1,1,0,0,0-.264.04l7.2,7.172Z" transform="translate(-17.341 -31.924)" fill="#f0f0f2"/>
  <path id="Tracé_424" data-name="Tracé 424" d="M26.176,39.389l-7.257,7.227a1,1,0,0,1-1.405,0l-7.192-7.172a1,1,0,0,0-.035.249v9.968a1,1,0,0,0,1,1H25.239a1,1,0,0,0,1-1V39.693A1,1,0,0,0,26.176,39.389ZM11.966,49.661h-.693v-.713L14.9,45.354l.7.7Zm13.262,0h-.7l-3.633-3.6.7-.7,3.623,3.593Z" transform="translate(-10.287 -38.691)" fill="#f0f0f2"/>
</svg>
