<svg id="instagram" xmlns="http://www.w3.org/2000/svg" width="17.687" height="17.687" viewBox="0 0 17.687 17.687">
  <g id="Groupe_10447" data-name="Groupe 10447" transform="translate(0 0)">
    <path id="Tracé_420" data-name="Tracé 420" d="M8.844,0c-2.4,0-2.7.011-3.645.053A6.516,6.516,0,0,0,3.051.464a4.33,4.33,0,0,0-1.566,1.02A4.341,4.341,0,0,0,.464,3.051,6.478,6.478,0,0,0,.053,5.2C.011,6.141,0,6.441,0,8.845s.011,2.7.053,3.645a6.515,6.515,0,0,0,.411,2.147A4.528,4.528,0,0,0,3.05,17.223a6.493,6.493,0,0,0,2.147.411c.944.042,1.245.053,3.647.053s2.7-.011,3.646-.053a6.528,6.528,0,0,0,2.148-.411,4.528,4.528,0,0,0,2.586-2.587,6.544,6.544,0,0,0,.411-2.147c.042-.943.053-1.244.053-3.646s-.011-2.7-.053-3.647a6.536,6.536,0,0,0-.411-2.146A4.34,4.34,0,0,0,16.2,1.485,4.323,4.323,0,0,0,14.636.464,6.506,6.506,0,0,0,12.488.053C11.544.011,11.245,0,8.841,0h0ZM8.051,1.594h.794c2.361,0,2.641.008,3.573.051a4.9,4.9,0,0,1,1.643.3,2.744,2.744,0,0,1,1.017.662,2.732,2.732,0,0,1,.661,1.017,4.857,4.857,0,0,1,.3,1.642c.043.932.052,1.212.052,3.572s-.009,2.641-.052,3.573a4.893,4.893,0,0,1-.3,1.642,2.931,2.931,0,0,1-1.679,1.677,4.865,4.865,0,0,1-1.642.305c-.932.042-1.212.052-3.573.052s-2.642-.01-3.574-.052a4.885,4.885,0,0,1-1.642-.305,2.739,2.739,0,0,1-1.017-.661,2.742,2.742,0,0,1-.663-1.017,4.886,4.886,0,0,1-.3-1.642c-.042-.932-.051-1.212-.051-3.574S1.6,6.2,1.645,5.267A4.893,4.893,0,0,1,1.95,3.625a2.744,2.744,0,0,1,.662-1.017,2.732,2.732,0,0,1,1.017-.661,4.885,4.885,0,0,1,1.642-.305c.816-.038,1.132-.049,2.78-.05v0Zm5.514,1.468a1.061,1.061,0,1,0,1.061,1.061,1.061,1.061,0,0,0-1.061-1.061ZM8.845,4.3a4.542,4.542,0,1,0,4.542,4.542A4.541,4.541,0,0,0,8.845,4.3Zm0,1.593A2.948,2.948,0,1,1,5.9,8.844,2.948,2.948,0,0,1,8.845,5.9Z" transform="translate(0 0)" fill="#37ed81"/>
  </g>
</svg>
