<svg xmlns="http://www.w3.org/2000/svg" width="140" height="119" viewBox="0 0 140 119">
  <g id="javascript" transform="translate(-1276 -1361)">
    <rect id="Rectangle_1410" data-name="Rectangle 1410" width="140" height="119" rx="7" transform="translate(1276 1361)" fill="rgba(55,237,129,0.08)"/>
    <path id="Exclusion_1" data-name="Exclusion 1" d="M1998.764,61h0l-21.884-6.177L1972,0h53.68L2020.8,54.823,1998.764,61ZM1984.4,37.864l-.558,4.165a12.568,12.568,0,0,0,3.677.543,8.134,8.134,0,0,0,5.864-1.947c1.49-1.444,2.245-3.74,2.245-6.824V19.535h-5.357v14.23c0,3.2-.959,4.5-3.309,4.5a7.946,7.946,0,0,1-2.561-.406Zm15.459-.95-1.018,4.233a13.187,13.187,0,0,0,6.106,1.423c6.558,0,8.895-3.656,8.895-7.078,0-3.224-1.761-5.334-5.711-6.842-2.853-1.137-4.1-1.788-4.1-3.25,0-1.1.995-2.2,3.217-2.2a9.273,9.273,0,0,1,4.453,1.158l1.281-4.286A13.857,13.857,0,0,0,2007.309,19c-4.986,0-8.469,2.813-8.469,6.841,0,3.043,2.029,5.269,6.2,6.808,2.7.965,3.71,1.828,3.71,3.183,0,1.593-1.28,2.507-3.513,2.507a11.643,11.643,0,0,1-5.383-1.424Z" transform="translate(-652.84 1390)" fill="#37ed81"/>
  </g>
</svg>
