<svg id="linkedin" xmlns="http://www.w3.org/2000/svg" width="17.347" height="16.582" viewBox="0 0 17.347 16.582">
  <path id="Tracé_421" data-name="Tracé 421" d="M3.938,16.582V5.394H.219V16.582ZM2.079,3.865A1.939,1.939,0,1,0,2.1,0a1.938,1.938,0,1,0-.049,3.866h.024ZM6,16.582H9.714V10.334a2.549,2.549,0,0,1,.122-.907,2.036,2.036,0,0,1,1.908-1.36c1.346,0,1.884,1.026,1.884,2.53v5.985h3.718V10.167c0-3.436-1.835-5.035-4.281-5.035A3.7,3.7,0,0,0,9.69,7.016h.025V5.394H6c.049,1.05,0,11.188,0,11.188Z" transform="translate(0 0)" fill="#37ed81"/>
</svg>
