<svg id="phone" xmlns="http://www.w3.org/2000/svg" width="16.115" height="16.115" viewBox="0 0 16.115 16.115">
  <path id="Tracé_422" data-name="Tracé 422" d="M16.115,12.727a3.778,3.778,0,0,1-.114.807,4.547,4.547,0,0,1-.24.784,3.069,3.069,0,0,1-1.4,1.213,4.438,4.438,0,0,1-2.129.584,4.542,4.542,0,0,1-.607-.04,4.7,4.7,0,0,1-.658-.143q-.361-.1-.538-.166T9.8,15.531q-.458-.172-.561-.206a10.366,10.366,0,0,1-2-.95A17.251,17.251,0,0,1,4.212,11.9,17.251,17.251,0,0,1,1.74,8.881a10.366,10.366,0,0,1-.95-2q-.034-.1-.206-.561T.349,5.683Q.286,5.505.183,5.145A4.7,4.7,0,0,1,.04,4.487,4.542,4.542,0,0,1,0,3.88,4.438,4.438,0,0,1,.584,1.751,3.069,3.069,0,0,1,1.8.355a4.547,4.547,0,0,1,.784-.24A3.778,3.778,0,0,1,3.388,0a.641.641,0,0,1,.24.034Q3.834.1,4.235.9q.126.217.343.618t.4.727q.183.326.355.612.034.046.2.286a3.2,3.2,0,0,1,.246.406.747.747,0,0,1,.08.326.95.95,0,0,1-.326.572,5.579,5.579,0,0,1-.71.629,6.893,6.893,0,0,0-.71.607.872.872,0,0,0-.326.526.773.773,0,0,0,.057.258,2.5,2.5,0,0,0,.1.235q.04.08.16.275t.132.217a12.013,12.013,0,0,0,1.991,2.69,12.013,12.013,0,0,0,2.69,1.991q.023.011.217.132t.275.16a2.5,2.5,0,0,0,.235.1.773.773,0,0,0,.258.057A.872.872,0,0,0,10.427,12a6.893,6.893,0,0,0,.607-.71,5.579,5.579,0,0,1,.629-.71.95.95,0,0,1,.572-.326.747.747,0,0,1,.326.08,3.2,3.2,0,0,1,.406.246q.24.166.286.2.286.172.612.355t.727.4q.4.217.618.343.8.4.87.607A.641.641,0,0,1,16.115,12.727Z" transform="translate(0)" fill="#f0f0f2"/>
</svg>
