<svg xmlns="http://www.w3.org/2000/svg" width="140" height="119" viewBox="0 0 140 119">
  <g id="Groupe_10525" data-name="Groupe 10525" transform="translate(-172 -1560)">
    <rect id="Rectangle_1412" data-name="Rectangle 1412" width="140" height="119" rx="7" transform="translate(172 1560)" fill="rgba(55,237,129,0.08)"/>
    <g id="php" transform="translate(202.667 1553.305)">
      <path id="Tracé_432" data-name="Tracé 432" d="M22.977,60.316H19.883L18.195,69h2.747a6.646,6.646,0,0,0,4.071-1.029,5.466,5.466,0,0,0,1.8-3.438q.452-2.311-.406-3.261C25.835,60.634,24.695,60.316,22.977,60.316ZM39.333,45.5C17.612,45.5,0,54.767,0,66.193S17.612,86.886,39.333,86.886,78.667,77.62,78.667,66.193,61.055,45.5,39.333,45.5ZM28.648,69.927a7.955,7.955,0,0,1-3.006,1.806,14.005,14.005,0,0,1-4.212.538H17.559l-1.072,5.51H11.97L16,57.045h8.686q3.919,0,5.716,2.058t1.082,5.743a9.036,9.036,0,0,1-2.839,5.081Zm13.19,2.344,1.78-9.175a2.479,2.479,0,0,0-.223-2.134,3.146,3.146,0,0,0-2.252-.57H37.563L35.256,72.274H30.772L34.8,51.535h4.481l-1.072,5.513H42.2q3.771,0,5.2,1.314t.862,4.258L46.39,72.27Zm24.9-7.424a9.119,9.119,0,0,1-1,2.776,9.361,9.361,0,0,1-1.839,2.3,8,8,0,0,1-3.006,1.806,14.013,14.013,0,0,1-4.215.538H52.812L51.74,77.784H47.223l4.032-20.735h8.683q3.919,0,5.716,2.058T66.739,64.846Zm-8.506-4.53H55.142L53.451,69H56.2a6.633,6.633,0,0,0,4.071-1.029,5.484,5.484,0,0,0,1.806-3.438c.3-1.541.161-2.629-.41-3.261s-1.718-.951-3.432-.951Z" transform="translate(0 0)" fill="#37ed81"/>
    </g>
  </g>
</svg>
